<svg width="33" height="33" viewBox="0 0 33 33" fill="none" xmlns="http://www.w3.org/2000/svg">
<path d="M31.7103 0.48291H2.25117C1.54271 0.48291 0.970337 1.05528 0.970337 1.76374V31.2229C0.970337 31.9313 1.54271 32.5037 2.25117 32.5037H31.7103C32.4187 32.5037 32.9911 31.9313 32.9911 31.2229V1.76374C32.9911 1.05528 32.4187 0.48291 31.7103 0.48291ZM28.0119 9.82897H25.4542C23.4489 9.82897 23.0607 10.7816 23.0607 12.1825V15.2685H27.8478L27.2234 20.0996H23.0607V32.5037H18.0694V20.1036H13.8947V15.2685H18.0694V11.7062C18.0694 7.57151 20.5951 5.31805 24.2855 5.31805C26.0546 5.31805 27.5716 5.45013 28.0159 5.51017V9.82897H28.0119Z" fill="white"/>
</svg>
