<svg width="33" height="33" viewBox="0 0 33 33" fill="none" xmlns="http://www.w3.org/2000/svg">
<path d="M31.6981 0.48291H2.23896C1.5305 0.48291 0.95813 1.05528 0.95813 1.76374V31.2229C0.95813 31.9313 1.5305 32.5037 2.23896 32.5037H31.6981C32.4065 32.5037 32.9789 31.9313 32.9789 31.2229V1.76374C32.9789 1.05528 32.4065 0.48291 31.6981 0.48291ZM10.4563 27.7686H5.70521V12.4867H10.4563V27.7686ZM8.08275 10.3973C7.53811 10.3973 7.00569 10.2358 6.55283 9.93325C6.09997 9.63066 5.74701 9.20057 5.53859 8.69738C5.33016 8.1942 5.27562 7.6405 5.38188 7.10632C5.48813 6.57214 5.75041 6.08146 6.13553 5.69634C6.52066 5.31121 7.01133 5.04894 7.54552 4.94268C8.0797 4.83643 8.63339 4.89096 9.13658 5.09939C9.63977 5.30782 10.0699 5.66078 10.3724 6.11363C10.675 6.56649 10.8365 7.09891 10.8365 7.64356C10.8325 9.16454 9.59974 10.3973 8.08275 10.3973ZM28.2438 27.7686H23.4968V20.3358C23.4968 18.5626 23.4647 16.2852 21.0272 16.2852C18.5576 16.2852 18.1773 18.2144 18.1773 20.2077V27.7686H13.4342V12.4867H17.9892V14.5761H18.0532C18.6856 13.3753 20.2346 12.1065 22.5481 12.1065C27.3593 12.1065 28.2438 15.2725 28.2438 19.3872V27.7686Z" fill="white"/>
</svg>
