<svg width="34" height="29" viewBox="0 0 34 29" fill="none" xmlns="http://www.w3.org/2000/svg">
<path d="M33.645 4.17846C32.4202 4.7068 31.0873 5.08705 29.7144 5.23514C31.1398 4.38834 32.2072 3.05052 32.7164 1.4727C31.3788 2.26837 29.9136 2.82631 28.3855 3.12177C27.7469 2.43903 26.9745 1.89514 26.1165 1.52396C25.2585 1.15279 24.3332 0.962307 23.3983 0.964372C19.6159 0.964372 16.5739 4.03036 16.5739 7.7928C16.5739 8.32115 16.6379 8.84949 16.742 9.35782C11.0783 9.06163 6.02705 6.35587 2.66887 2.21318C2.05697 3.25832 1.73632 4.44834 1.74026 5.65942C1.74026 8.02896 2.94505 10.1183 4.78224 11.3471C3.69955 11.3045 2.64222 11.0069 1.69624 10.4785V10.5626C1.69624 13.8808 4.04176 16.6305 7.16779 17.2629C6.58084 17.4154 5.97704 17.4934 5.37062 17.4951C4.92633 17.4951 4.50606 17.4511 4.08178 17.391C4.94634 20.0968 7.46398 22.0621 10.4619 22.1261C8.1164 23.9633 5.17849 25.044 1.98843 25.044C1.41605 25.044 0.887711 25.024 0.339355 24.9599C3.36532 26.9012 6.95565 28.0219 10.8222 28.0219C23.3743 28.0219 30.2428 17.6232 30.2428 8.59733C30.2428 8.30113 30.2428 8.00494 30.2227 7.70875C31.5516 6.73612 32.7164 5.53134 33.645 4.17846Z" fill="white"/>
</svg>
