<svg width="79" height="80" viewBox="0 0 79 80" fill="none" xmlns="http://www.w3.org/2000/svg">
<path opacity="0.5" d="M39.405 11.3875V34.1149L59.1078 22.7277V0L39.405 11.3875Z" fill="#13A049"/>
<path opacity="0.5" d="M39.4051 11.3875L19.7027 0V22.775L39.4051 34.1625V11.3875Z" fill="#A2CC39"/>
<path opacity="0.9" d="M59.108 0L39.4053 11.3875L19.7028 0L0 11.3875L39.4053 34.1625L78.7871 11.3875L59.108 0Z" fill="url(#paint0_linear)"/>
<path d="M39.4053 34.1627L0 11.3877V34.1627L19.7028 45.5502V68.3017L39.4053 79.6892L59.108 68.3017V45.5502L78.7871 34.1627V11.3877L39.4053 34.1627Z" fill="url(#paint1_linear)"/>
<path d="M39.405 34.1627V79.6892L59.1078 68.3017V45.5502L78.7868 34.1627V11.3877L39.405 34.1627Z" fill="url(#paint2_linear)"/>
<path opacity="0.05" d="M39.405 56.9141V79.689L59.1078 68.3015L39.405 56.9141Z" fill="#231F20"/>
<path opacity="0.1" d="M39.4051 79.7364V56.9614L19.7027 68.3489L39.4051 79.7364Z" fill="#231F20"/>
<path opacity="0.05" d="M19.7028 22.7749L0 34.1624L19.7028 45.5499L39.4053 34.1624L19.7028 22.7749Z" fill="#231F20"/>
<path opacity="0.05" d="M59.1078 22.7749L39.405 34.1624L59.1078 45.5499L78.7868 34.1624L59.1078 22.7749Z" fill="#231F20"/>
<defs>
<linearGradient id="paint0_linear" x1="78.7965" y1="17.0782" x2="0" y2="17.0782" gradientUnits="userSpaceOnUse">
<stop stop-color="#37BDA6"/>
<stop offset="1" stop-color="#8AD3B8"/>
</linearGradient>
<linearGradient id="paint1_linear" x1="78.7965" y1="45.5371" x2="0" y2="45.5371" gradientUnits="userSpaceOnUse">
<stop offset="0.5" stop-color="#4BB6AD"/>
<stop offset="1" stop-color="#78BBC1"/>
</linearGradient>
<linearGradient id="paint2_linear" x1="39.3979" y1="45.5371" x2="78.7959" y2="45.5371" gradientUnits="userSpaceOnUse">
<stop stop-color="#4379A7"/>
<stop offset="1" stop-color="#7CC9B8"/>
</linearGradient>
</defs>
</svg>
