<svg width="95" height="38" viewBox="0 0 95 38" fill="none" xmlns="http://www.w3.org/2000/svg">
<path d="M0.5 0.181641V2.75416H18.797V0.181641H0.5ZM21.3893 0.181641V2.75416H47.4633C47.4633 2.75416 44.7999 0.181641 41.2725 0.181641H21.3893ZM52.5782 0.181641V2.75416H68.3526L67.4163 0.181641H52.5782ZM79.6619 0.181641L78.7256 2.75416H94.3568V0.181641H79.6619ZM0.5 5.18457V7.75709H18.797V5.18457H0.5ZM21.3893 5.18824V7.75709H50.4889C50.4889 7.75709 50.1491 5.77721 49.5563 5.18824H21.3893ZM52.5782 5.18824V7.75709H70.082L69.2155 5.18824H52.5782ZM77.7893 5.18824L76.9227 7.75709H94.3568V5.18824H77.7893ZM5.75812 10.1875V12.7633H13.682V10.1875H5.75812ZM26.6474 10.1875V12.7633H34.5713V10.1875H26.6474ZM42.2786 10.1875V12.7633H50.2025C50.2025 12.7633 50.7055 11.4029 50.7055 10.1873H42.2786V10.1875ZM57.8363 10.1875V12.7633H71.8849L70.9486 10.1873H57.8363V10.1875ZM76.0635 10.1875L75.1235 12.7635H89.2419V10.1875H76.0635ZM5.75812 15.1941V17.7662H13.682V15.1941H5.75812ZM26.6474 15.1941V17.7662H46.8868C46.8868 17.7662 48.5799 16.4462 49.1193 15.1937H26.6474V15.1941ZM57.8363 15.1941V17.7662H65.7602V16.3342L66.2633 17.7662H80.7782L81.318 16.3342V17.7662H89.2419V15.1941H74.3671L73.5777 17.3732L72.7845 15.1941H57.8363ZM5.75812 20.1967V22.7692H13.682V20.1967H5.75812ZM26.6474 20.1967V22.7692H49.1193C48.5797 21.5207 46.8868 20.1967 46.8868 20.1967H26.6474ZM57.8363 20.1967V22.7692H65.7602V20.1967H57.8363ZM67.1996 20.1967L68.158 22.7692H79.0414L79.952 20.1967H67.1996ZM81.318 20.1967V22.7692H89.2419V20.1967H81.318ZM5.75812 25.1996V27.7721H13.682V25.1996H5.75812ZM26.6474 25.1996V27.7721H34.5713V25.1996H26.6474ZM42.2786 25.1996V27.7721H50.7055C50.7055 26.558 50.2025 25.1996 50.2025 25.1996H42.2786ZM57.8363 25.1996V27.7721H65.7602V25.1996H57.8363ZM68.9988 25.1996L69.9278 27.7721H77.2238L78.1602 25.1996H68.9988ZM81.318 25.1996V27.7721H89.2419V25.1996H81.318ZM0.643203 30.2027V32.7787H18.9402V30.2025H0.643203V30.2027ZM21.3893 30.2027V32.7787H49.5563C50.1491 32.1888 50.4889 30.2025 50.4889 30.2025H21.3893V30.2027ZM52.7214 30.2027V32.7787H65.7602V30.2025H52.7214V30.2027ZM70.8017 30.2027L71.7564 32.7787H75.4687L76.3646 30.2025H70.8017V30.2027ZM81.318 30.2027V32.7787H94.5V30.2025H81.318V30.2027ZM0.643203 35.2091V37.7816H18.9402V35.2091H0.643203ZM21.3893 35.2091V37.7778H41.2725C44.7999 37.7778 47.4633 35.2089 47.4633 35.2089H21.3893V35.2091ZM52.7214 35.2091V37.7816H65.7602V35.2091H52.7214ZM72.612 35.2091L73.5299 37.7741L73.6878 37.7778L74.6205 35.2089H72.612V35.2091ZM81.318 35.2091V37.7816H94.5V35.2091H81.318Z" fill="#1F70C1"/>
</svg>
