<svg width="61" height="66" viewBox="0 0 61 66" fill="none" xmlns="http://www.w3.org/2000/svg">
<path d="M56.2905 52.9507C55.8382 56.3126 53.5758 59.2216 50.4084 60.5145C48.8569 61.1602 47.1764 61.3547 45.4955 61.1602C43.8797 60.9666 42.2634 60.4493 40.583 59.4806C38.2556 58.1864 35.9285 56.1834 33.2137 53.2097C37.4803 47.9737 40.0652 43.1902 41.0353 38.9245C41.4879 36.9204 41.5523 35.1103 41.3587 33.4294C41.1005 31.8136 40.5185 30.3262 39.6131 29.0337C37.6092 26.1251 34.2483 24.4441 30.499 24.4441C26.7497 24.4441 23.3885 26.1898 21.3846 29.0337C20.4792 30.3265 19.8982 31.8136 19.6392 33.4294C19.3809 35.1103 19.4454 36.9848 19.9626 38.9248C20.932 43.1899 23.5821 48.0384 27.7842 53.2734C25.1339 56.2479 22.7421 58.2516 20.4148 59.5446C18.7343 60.5145 17.118 61.0317 15.5023 61.2248C13.8365 61.4109 12.1506 61.1893 10.5895 60.5791C7.42194 59.2863 5.15999 56.3763 4.70718 53.0152C4.51359 51.3996 4.64273 49.7838 5.28913 47.9737C5.48273 47.3269 5.8064 46.6816 6.12913 45.9054C6.58194 44.8716 7.09921 43.7719 7.61577 42.6727L7.68093 42.5442C12.1406 32.9121 16.9244 23.0869 21.9019 13.5204L22.0957 13.1318C22.613 12.1631 23.1295 11.1293 23.6473 10.1592C24.1641 9.12469 24.7458 8.15484 25.4566 7.31391C26.8141 5.76234 28.6242 4.92211 30.6281 4.92211C32.632 4.92211 34.4419 5.76234 35.7994 7.31414C36.5105 8.15484 37.0922 9.12469 37.6094 10.1595C38.1267 11.1293 38.6433 12.1631 39.1605 13.1318L39.3551 13.5204C44.2673 23.1513 49.0512 32.9766 53.5113 42.6087V42.6727C54.0286 43.7072 54.4807 44.8716 54.998 45.9054C55.3214 46.6816 55.6444 47.3266 55.838 47.9737C56.3552 49.6542 56.549 51.2709 56.2908 52.9507H56.2905ZM30.499 49.9123C27.0087 45.5173 24.7458 41.3798 23.9702 37.8902C23.6475 36.4031 23.5821 35.1103 23.7766 33.9466C23.9055 32.9121 24.2939 32.0067 24.8102 31.2305C26.0386 29.4867 28.1069 28.3859 30.499 28.3859C32.8908 28.3859 35.0238 29.4211 36.1873 31.2305C36.7041 32.0067 37.0922 32.9121 37.2213 33.9466C37.4151 35.1103 37.3505 36.4676 37.0275 37.8902C36.2519 41.3159 33.9893 45.4528 30.499 49.9123ZM59.6519 46.5513C59.329 45.7755 59.0055 44.9355 58.6826 44.2245C58.1653 43.0615 57.648 41.9618 57.1955 40.9273L57.1308 40.8633C52.6711 31.1665 47.8873 21.3412 42.8451 11.6466L42.6516 11.2575C42.1343 10.2879 41.617 9.25336 41.1005 8.2193C40.4536 7.05516 39.8069 5.8282 38.7731 4.66383C36.7038 2.0782 33.731 0.65625 30.5632 0.65625C27.3312 0.65625 24.4226 2.0782 22.2891 4.53516C21.3199 5.69836 20.6088 6.92648 19.9624 8.09086C19.4451 9.12469 18.9279 10.1592 18.4109 11.1293L18.217 11.516C13.2401 21.2121 8.39179 31.038 3.9314 40.7341L3.86694 40.8633C3.41413 41.8971 2.89687 42.9956 2.3796 44.16C2.03379 44.9261 1.7106 45.7022 1.41046 46.4873C0.569757 48.8784 0.311476 51.1413 0.634445 53.468C1.34601 58.3162 4.57804 62.3892 9.03819 64.1986C10.7184 64.9102 12.4638 65.2331 14.2741 65.2331C14.7912 65.2331 15.4376 65.1684 15.9548 65.1033C18.0876 64.8443 20.2854 64.1346 22.4182 62.9058C25.069 61.4191 27.5901 59.2863 30.4341 56.1834C33.278 59.2863 35.8638 61.4194 38.4494 62.9058C40.583 64.1346 42.7805 64.8443 44.9135 65.1033C45.4308 65.1684 46.0772 65.2331 46.5942 65.2331C48.4043 65.2331 50.2139 64.9102 51.8301 64.1986C56.355 62.3892 59.5223 58.2518 60.2334 53.468C60.7507 51.2051 60.4917 48.9438 59.6517 46.5511L59.6519 46.5513Z" fill="#E0565B"/>
</svg>
