<svg width="41" height="44" viewBox="0 0 41 44" fill="none" xmlns="http://www.w3.org/2000/svg">
<rect x="0.5" y="0.750977" width="40.1839" height="42.4981" rx="20.092" fill="#FC4746"/>
<path d="M30.4919 14C28.3319 14 26.2919 14.8327 24.8369 16.2751L14.2919 25.5539C13.3319 26.5056 12.0569 27.026 10.6919 27.026C7.88692 27.026 5.59192 24.7807 5.59192 22C5.59192 19.2194 7.88692 16.974 10.6919 16.974C12.0569 16.974 13.3319 17.4945 14.3519 18.5056L16.0469 19.9926L18.3419 18L16.4219 16.3495C15.6708 15.602 14.7776 15.0095 13.7941 14.6063C12.8106 14.203 11.7562 13.997 10.6919 14C6.22192 14 2.59192 17.5985 2.59192 22C2.59192 26.4015 6.22192 30 10.6919 30C12.8519 30 14.8919 29.1673 16.3469 27.7249L26.8919 18.4461C27.8519 17.4945 29.1269 16.974 30.4919 16.974C33.2969 16.974 35.5919 19.2194 35.5919 22C35.5919 24.7807 33.2969 27.026 30.4919 27.026C29.1419 27.026 27.8519 26.5056 26.8319 25.4944L25.0919 23.9926L22.8419 25.9851L24.7619 27.6506C25.5151 28.3943 26.409 28.9833 27.3922 29.3839C28.3755 29.7846 29.4289 29.9889 30.4919 29.9851C34.9619 29.9851 38.5919 26.4015 38.5919 22C38.5919 17.5391 34.9619 14 30.4919 14Z" fill="white"/>
</svg>
