<svg width="44" height="44" viewBox="0 0 44 44" fill="none" xmlns="http://www.w3.org/2000/svg">
<rect x="0.5" y="0.750977" width="43" height="42.4981" rx="21.249" fill="#FC4746"/>
<path d="M20.7325 21.144C21.4975 22.456 21.385 24 20.47 24.624C19.555 25.232 18.19 24.664 17.4175 23.352C16.6525 22.04 16.7725 20.48 17.6875 19.872C18.6025 19.264 19.9675 19.832 20.7325 21.144ZM22 26.6C23.5 26.6 23.875 26 23.875 26C23.875 26 23.5 27.6 22 27.6C20.5 27.6 20.125 26.024 20.125 26C20.125 26 20.5 26.6 22 26.6ZM26.3125 19.872C27.2275 20.48 27.3475 22.04 26.5825 23.352C25.81 24.664 24.445 25.232 23.53 24.624C22.615 24 22.5025 22.456 23.2675 21.144C24.0325 19.832 25.3975 19.264 26.3125 19.872ZM22 28.4C23.875 28.4 28 24.288 28 21.2C28 18.112 25.3075 15.6 22 15.6C18.6925 15.6 16 18.112 16 21.2C16 24.288 20.125 28.4 22 28.4ZM22 14C26.125 14 29.5 17.232 29.5 21.2C29.5 24.464 25.24 30 22 30C18.76 30 14.5 24.464 14.5 21.2C14.5 17.232 17.875 14 22 14Z" fill="white"/>
</svg>
